<svg width="24" height="24" viewBox="0 0 24 24" fill="none" xmlns="http://www.w3.org/2000/svg">
<path d="M16.75 12H20.382C20.5524 12.0001 20.72 12.0437 20.8688 12.1267C21.0176 12.2098 21.1427 12.3294 21.2322 12.4744C21.3218 12.6194 21.3728 12.7848 21.3805 12.955C21.3882 13.1252 21.3522 13.2946 21.276 13.447L19.242 17.516C19.1649 17.6702 19.0492 17.8018 18.9062 17.8981C18.7632 17.9944 18.5978 18.0521 18.4259 18.0656C18.254 18.0791 18.0816 18.0479 17.9253 17.9751C17.7691 17.9022 17.6343 17.7903 17.534 17.65L15.41 14.68" stroke="black" stroke-width="1.75" stroke-linecap="round" stroke-linejoin="round"/>
<path d="M17.106 9.05301C17.343 9.17166 17.5232 9.37954 17.6071 9.63099C17.6909 9.88244 17.6714 10.1569 17.553 10.394L14.447 16.605C14.3883 16.7225 14.307 16.8273 14.2077 16.9133C14.1085 16.9994 13.9932 17.065 13.8686 17.1065C13.744 17.148 13.6124 17.1646 13.4814 17.1552C13.3504 17.1459 13.2225 17.1108 13.105 17.052L3.61002 12.3C2.92035 11.9526 2.39637 11.3462 2.15274 10.6134C1.90911 9.88064 1.96566 9.08119 2.31002 8.39001L3.69002 5.60001C3.86202 5.25723 4.09986 4.95169 4.38996 4.70084C4.68005 4.44999 5.01673 4.25875 5.38074 4.13803C5.74476 4.01731 6.12899 3.96948 6.51149 3.99727C6.894 4.02506 7.26728 4.12793 7.61002 4.30001L17.106 9.05301Z" stroke="black" stroke-width="1.75" stroke-linecap="round" stroke-linejoin="round"/>
<path d="M7 9H7.01" stroke="black" stroke-width="1.75" stroke-linecap="round" stroke-linejoin="round"/>
</svg>
