<?xml version="1.0" encoding="UTF-8" standalone="no"?>
<svg
   xmlns:dc="http://purl.org/dc/elements/1.1/"
   xmlns:cc="http://creativecommons.org/ns#"
   xmlns:rdf="http://www.w3.org/1999/02/22-rdf-syntax-ns#"
   xmlns:svg="http://www.w3.org/2000/svg"
   xmlns="http://www.w3.org/2000/svg"
   xmlns:sodipodi="http://sodipodi.sourceforge.net/DTD/sodipodi-0.dtd"
   xmlns:inkscape="http://www.inkscape.org/namespaces/inkscape"
   version="1.1"
   id="Capa_1"
   x="0px"
   y="0px"
   width="861.143px"
   height="861.143px"
   viewBox="0 0 861.143 861.143"
   style="enable-background:new 0 0 861.143 861.143;"
   xml:space="preserve"
   sodipodi:docname="revolving-stage.svg"
   inkscape:version="1.0.2 (e86c870879, 2021-01-15)"><metadata
   id="metadata41"><rdf:RDF><cc:Work
       rdf:about=""><dc:format>image/svg+xml</dc:format><dc:type
         rdf:resource="http://purl.org/dc/dcmitype/StillImage" /><dc:title /></cc:Work></rdf:RDF></metadata><defs
   id="defs39" /><sodipodi:namedview
   pagecolor="#ffffff"
   bordercolor="#666666"
   borderopacity="1"
   objecttolerance="10"
   gridtolerance="10"
   guidetolerance="10"
   inkscape:pageopacity="0"
   inkscape:pageshadow="2"
   inkscape:window-width="1780"
   inkscape:window-height="977"
   id="namedview37"
   showgrid="false"
   inkscape:zoom="0.42675839"
   inkscape:cx="909.28782"
   inkscape:cy="563.22341"
   inkscape:window-x="2031"
   inkscape:window-y="57"
   inkscape:window-maximized="0"
   inkscape:current-layer="Capa_1"
   inkscape:document-rotation="0" />
<g
   id="g4"
   transform="matrix(0.66462767,0,0,0.66462767,106.92971,171.65743)">
	<path
   d="m 876.643,76.067 c -28.996,0 -52.5,23.505 -52.5,52.5 v 84.329 C 792.867,158.457 749.32,111.94 696.486,76.9 630.14,32.899 552.836,9.641 472.93,9.641 418.286,9.641 365.251,20.354 315.296,41.484 267.07,61.881 223.772,91.071 186.6,128.242 149.43,165.413 120.24,208.713 99.842,256.938 78.714,306.894 68,359.93 68,414.571 c 0,54.643 10.714,107.679 31.843,157.634 20.397,48.225 49.588,91.524 86.759,128.695 37.171,37.171 80.471,66.361 128.695,86.759 49.955,21.13 102.99,31.843 157.634,31.843 46.663,0 92.43,-7.883 136.03,-23.431 42.135,-15.025 81.295,-36.847 116.393,-64.858 34.752,-27.735 64.539,-60.747 88.535,-98.119 24.443,-38.072 42.191,-79.621 52.746,-123.493 6.783,-28.189 -10.568,-56.542 -38.76,-63.325 -28.193,-6.783 -56.543,10.571 -63.326,38.762 -15.469,64.29 -52.649,122.571 -104.694,164.107 -26,20.751 -54.988,36.909 -86.16,48.025 -32.25,11.5 -66.152,17.331 -100.764,17.331 -80.114,0 -155.435,-31.198 -212.083,-87.849 C 204.199,570.003 173,494.684 173,414.569 c 0,-80.113 31.198,-155.434 87.848,-212.083 56.65,-56.649 131.969,-87.848 212.083,-87.848 59.198,0 116.434,17.208 165.522,49.763 42.299,28.054 76.562,66.007 100.006,110.546 h -58.025 c -28.996,0 -52.5,23.505 -52.5,52.5 0,28.994 23.504,52.5 52.5,52.5 h 196.209 c 28.996,0 52.5,-23.506 52.5,-52.5 v -198.88 c 0,-28.995 -23.506,-52.5 -52.5,-52.5 z"
   id="path2" />
</g>
<g
   id="g6">
</g>
<g
   id="g8">
</g>
<g
   id="g10">
</g>
<g
   id="g12">
</g>
<g
   id="g14">
</g>
<g
   id="g16">
</g>
<g
   id="g18">
</g>
<g
   id="g20">
</g>
<g
   id="g22">
</g>
<g
   id="g24">
</g>
<g
   id="g26">
</g>
<g
   id="g28">
</g>
<g
   id="g30">
</g>
<g
   id="g32">
</g>
<g
   id="g34">
</g>
<circle
   style="opacity:1;fill:none;fill-opacity:1;stroke:#000000;stroke-width:18.2613;stroke-linejoin:bevel;stroke-miterlimit:4;stroke-dasharray:none;stroke-opacity:1"
   id="path866"
   cx="432.77057"
   cy="433.62683"
   r="403.47406" /></svg>
