<?xml version="1.0" encoding="UTF-8" standalone="no"?>
<svg
   xmlns:dc="http://purl.org/dc/elements/1.1/"
   xmlns:cc="http://creativecommons.org/ns#"
   xmlns:rdf="http://www.w3.org/1999/02/22-rdf-syntax-ns#"
   xmlns:svg="http://www.w3.org/2000/svg"
   xmlns="http://www.w3.org/2000/svg"
   xmlns:sodipodi="http://sodipodi.sourceforge.net/DTD/sodipodi-0.dtd"
   xmlns:inkscape="http://www.inkscape.org/namespaces/inkscape"
   version="1.1"
   id="Capa_1"
   x="0px"
   y="0px"
   width="45.902px"
   height="45.902px"
   viewBox="0 0 45.902 45.902"
   style="enable-background:new 0 0 45.902 45.902;"
   xml:space="preserve"
   sodipodi:docname="stage.svg"
   inkscape:version="1.0.2 (e86c870879, 2021-01-15)"><metadata
   id="metadata41"><rdf:RDF><cc:Work
       rdf:about=""><dc:format>image/svg+xml</dc:format><dc:type
         rdf:resource="http://purl.org/dc/dcmitype/StillImage" /><dc:title /></cc:Work></rdf:RDF></metadata><defs
   id="defs39" /><sodipodi:namedview
   pagecolor="#ffffff"
   bordercolor="#666666"
   borderopacity="1"
   objecttolerance="10"
   gridtolerance="10"
   guidetolerance="10"
   inkscape:pageopacity="0"
   inkscape:pageshadow="2"
   inkscape:window-width="2001"
   inkscape:window-height="958"
   id="namedview37"
   showgrid="false"
   inkscape:zoom="4.0030935"
   inkscape:cx="-90.191407"
   inkscape:cy="17.568763"
   inkscape:window-x="2479"
   inkscape:window-y="109"
   inkscape:window-maximized="0"
   inkscape:current-layer="Capa_1"
   inkscape:document-rotation="0" />
<g
   id="g4"
   transform="matrix(0.75410785,0,0,0.75410785,5.4321196,6.1923607)">
	<path
   d="m 44.396,24.546 1.506,-1.507 -1.506,-1.507 -0.002,-0.001 -5.332,-5.333 c -0.834,-0.834 -2.185,-0.834 -3.019,0 -0.832,0.833 -0.832,2.183 0,3.017 l 1.692,1.691 h -5.512 c -0.262,-0.112 -0.549,-0.178 -0.851,-0.178 h -6.2 V 8.168 l 1.336,1.336 c 0.834,0.833 2.184,0.833 3.018,0 0.832,-0.833 0.832,-2.184 0,-3.017 L 24.55,1.51 c 0,0 -0.002,-0.001 -0.004,-0.003 L 23.04,0 21.532,1.507 C 21.531,1.509 21.53,1.51 21.53,1.51 l -5.332,5.332 c -0.834,0.833 -0.834,2.184 0,3.017 0.416,0.417 0.963,0.625 1.508,0.625 0.547,0 1.092,-0.208 1.509,-0.625 l 1.691,-1.691 v 5.512 c -0.113,0.26 -0.178,0.548 -0.178,0.849 v 6.2 H 8.169 l 1.336,-1.336 c 0.833,-0.834 0.833,-2.184 0,-3.017 -0.833,-0.834 -2.183,-0.834 -3.017,0 L 1.511,21.352 C 1.51,21.354 1.509,21.355 1.509,21.355 l -1.508,1.507 1.508,1.507 c 0,0 0.001,0.002 0.002,0.003 l 5.332,5.332 c 0.417,0.416 0.963,0.625 1.508,0.625 0.547,0 1.092,-0.209 1.509,-0.625 0.833,-0.833 0.833,-2.185 0,-3.017 L 8.169,24.996 h 5.512 c 0.261,0.111 0.547,0.178 0.849,0.178 h 6.2 v 12.561 l -1.336,-1.336 c -0.833,-0.834 -2.184,-0.834 -3.017,0 -0.834,0.834 -0.834,2.184 0,3.018 l 4.977,4.977 c 0,0 0.001,0.002 0.002,0.002 l 1.508,1.508 1.506,-1.508 c 0.002,0 0.002,-0.002 0.002,-0.002 l 5.333,-5.332 c 0.833,-0.834 0.833,-2.184 0,-3.017 -0.833,-0.834 -2.183,-0.834 -3.017,0 l -1.691,1.69 v -5.512 c 0.113,-0.261 0.178,-0.548 0.178,-0.85 V 25.174 H 37.736 L 36.4,26.51 c -0.832,0.834 -0.832,2.184 0,3.018 0.418,0.416 0.963,0.625 1.509,0.625 0.546,0 1.092,-0.209 1.509,-0.625 l 4.977,-4.978 c -0.001,-0.002 10e-4,-0.004 10e-4,-0.004 z"
   id="path2" />
</g>
<g
   id="g6">
</g>
<g
   id="g8">
</g>
<g
   id="g10">
</g>
<g
   id="g12">
</g>
<g
   id="g14">
</g>
<g
   id="g16">
</g>
<g
   id="g18">
</g>
<g
   id="g20">
</g>
<g
   id="g22">
</g>
<g
   id="g24">
</g>
<g
   id="g26">
</g>
<g
   id="g28">
</g>
<g
   id="g30">
</g>
<g
   id="g32">
</g>
<g
   id="g34">
</g>
<rect
   style="opacity:1;fill:none;stroke:#000000;stroke-width:1.11307;stroke-linejoin:bevel;stroke-miterlimit:4;stroke-dasharray:none;stroke-opacity:1"
   id="rect866"
   width="42.479275"
   height="42.479275"
   x="1.6919215"
   y="1.995211" /></svg>
