<svg width="45" height="34" viewBox="0 0 45 34" fill="none" xmlns="http://www.w3.org/2000/svg">
<path d="M0 4C0 1.79086 1.79086 0 4 0H41C43.2091 0 45 1.79086 45 4V30C45 32.2091 43.2091 34 41 34H4C1.79086 34 0 32.2091 0 30V4Z" fill="#EFF1EF"/>
<path d="M27.25 17H30.882C31.0524 17.0001 31.22 17.0437 31.3688 17.1267C31.5176 17.2098 31.6427 17.3294 31.7322 17.4744C31.8218 17.6194 31.8728 17.7848 31.8805 17.955C31.8882 18.1252 31.8522 18.2946 31.776 18.447L29.742 22.516C29.6649 22.6702 29.5492 22.8018 29.4062 22.8981C29.2632 22.9944 29.0978 23.0521 28.9259 23.0656C28.754 23.0791 28.5816 23.0479 28.4253 22.9751C28.2691 22.9022 28.1343 22.7903 28.034 22.65L25.91 19.68" stroke="#586084" stroke-width="2" stroke-linecap="round" stroke-linejoin="round"/>
<path d="M27.606 14.053C27.843 14.1717 28.0232 14.3796 28.107 14.631C28.1908 14.8825 28.1714 15.1569 28.053 15.394L24.947 21.605C24.8882 21.7225 24.8069 21.8273 24.7077 21.9133C24.6084 21.9994 24.4932 22.065 24.3686 22.1066C24.2439 22.1481 24.1124 22.1646 23.9813 22.1553C23.8503 22.1459 23.7224 22.1108 23.605 22.052L14.11 17.3C13.4203 16.9527 12.8963 16.3462 12.6527 15.6134C12.409 14.8807 12.4656 14.0812 12.81 13.39L14.19 10.6C14.362 10.2573 14.5998 9.95172 14.8899 9.70087C15.18 9.45002 15.5167 9.25878 15.8807 9.13806C16.2447 9.01734 16.6289 8.96951 17.0114 8.9973C17.3939 9.02509 17.7672 9.12797 18.11 9.30004L27.606 14.053Z" stroke="#586084" stroke-width="2" stroke-linecap="round" stroke-linejoin="round"/>
<path d="M17.5 14H17.51" stroke="#586084" stroke-width="2" stroke-linecap="round" stroke-linejoin="round"/>
</svg>
